<svg width="180" height="48" viewBox="0 0 180 48" fill="none" xmlns="http://www.w3.org/2000/svg">
<rect width="180" height="48" rx="8" fill="#122549"/>
<path d="M66.8851 25.772C66.9385 25.772 66.9758 25.8307 66.9971 25.948C67.0291 26.0653 67.0451 26.3053 67.0451 26.668C67.0451 27.0093 67.0291 27.2333 66.9971 27.34C66.9758 27.4467 66.9385 27.5 66.8851 27.5H66.4051C65.5518 27.5 64.9065 27.2493 64.4691 26.748C64.0318 26.2467 63.8131 25.5373 63.8131 24.62V17.164H65.4611V24.508C65.4611 24.9453 65.5411 25.2653 65.7011 25.468C65.8718 25.6707 66.1385 25.772 66.5011 25.772H66.8851ZM67.2746 25.772C67.6266 25.772 67.8773 25.7027 68.0266 25.564C68.1866 25.4147 68.2666 25.1853 68.2666 24.876V24.316C68.2666 23.292 68.5493 22.4813 69.1146 21.884C69.6906 21.2867 70.4693 20.988 71.4506 20.988C72.432 20.988 73.184 21.276 73.7066 21.852C74.2293 22.4173 74.4906 23.2333 74.4906 24.3C74.4906 25.3133 74.2133 26.1027 73.6586 26.668C73.1146 27.2227 72.3573 27.5 71.3866 27.5C70.8426 27.5 70.384 27.4253 70.0106 27.276C69.6373 27.116 69.3653 26.8973 69.1946 26.62C69.0026 26.9293 68.752 27.1533 68.4426 27.292C68.144 27.4307 67.7546 27.5 67.2746 27.5H66.8906C66.784 27.5 66.7306 27.2227 66.7306 26.668C66.7306 26.0707 66.784 25.772 66.8906 25.772H67.2746ZM72.8426 24.3C72.8426 23.7453 72.72 23.3347 72.4746 23.068C72.24 22.7907 71.8773 22.652 71.3866 22.652C70.896 22.652 70.528 22.7907 70.2826 23.068C70.048 23.3347 69.9306 23.7507 69.9306 24.316C69.9306 24.7853 70.0533 25.148 70.2986 25.404C70.544 25.6493 70.9066 25.772 71.3866 25.772C71.8773 25.772 72.24 25.6547 72.4746 25.42C72.72 25.1747 72.8426 24.8013 72.8426 24.3ZM80.6375 24.78C80.6375 24.1933 80.7975 23.6067 81.1175 23.02C81.4375 22.4227 81.9708 21.7507 82.7175 21.004L82.0295 20.3L83.1975 19.052C84.2535 20.012 85.0588 20.812 85.6135 21.452C86.1682 22.0813 86.5468 22.636 86.7495 23.116C86.9628 23.596 87.0695 24.0973 87.0695 24.62C87.0695 25.2067 86.9255 25.7347 86.6375 26.204C86.3602 26.6627 85.9655 27.02 85.4535 27.276C84.9522 27.532 84.3708 27.66 83.7095 27.66C82.7815 27.66 82.0348 27.3987 81.4695 26.876C80.9148 26.3427 80.6375 25.644 80.6375 24.78ZM85.4215 24.62C85.4215 24.204 85.3042 23.804 85.0695 23.42C84.8455 23.036 84.4402 22.5827 83.8535 22.06C83.2882 22.5933 82.8828 23.068 82.6375 23.484C82.4028 23.8893 82.2855 24.2947 82.2855 24.7C82.2855 25.052 82.4188 25.3453 82.6855 25.58C82.9522 25.8147 83.3148 25.932 83.7735 25.932C84.2535 25.932 84.6482 25.8093 84.9575 25.564C85.2668 25.3187 85.4215 25.004 85.4215 24.62ZM92.0013 26.988C92.0013 27.8733 91.8253 28.6467 91.4733 29.308C91.1213 29.9693 90.6199 30.476 89.9693 30.828C89.3293 31.1907 88.5826 31.372 87.7293 31.372H86.5292L86.3852 29.644H87.7133C88.5346 29.644 89.1746 29.4093 89.6332 28.94C90.1026 28.4813 90.3373 27.8307 90.3373 26.988V22.188H92.0013V26.988ZM97.6195 25.772C97.6728 25.772 97.7102 25.8307 97.7315 25.948C97.7635 26.0653 97.7795 26.3053 97.7795 26.668C97.7795 27.0093 97.7635 27.2333 97.7315 27.34C97.7102 27.4467 97.6728 27.5 97.6195 27.5H97.1395C96.2862 27.5 95.6408 27.2493 95.2035 26.748C94.7662 26.2467 94.5475 25.5373 94.5475 24.62V17.164H96.1955V24.508C96.1955 24.9453 96.2755 25.2653 96.4355 25.468C96.6062 25.6707 96.8728 25.772 97.2355 25.772H97.6195ZM102.025 24.812C102.025 25.6547 101.774 26.316 101.273 26.796C100.772 27.2653 100.1 27.5 99.257 27.5H97.625C97.5183 27.5 97.465 27.2227 97.465 26.668C97.465 26.0707 97.5183 25.772 97.625 25.772H99.257C99.5877 25.772 99.8543 25.6867 100.057 25.516C100.26 25.3347 100.361 25.084 100.361 24.764V22.188H102.025V24.812ZM97.945 30.94V29.372H99.865V30.94H97.945ZM106.939 26.988C106.939 27.8733 106.763 28.6467 106.411 29.308C106.059 29.9693 105.557 30.476 104.907 30.828C104.267 31.1907 103.52 31.372 102.667 31.372H102.203L102.059 29.644H102.651C103.472 29.644 104.112 29.4093 104.571 28.94C105.04 28.4813 105.275 27.8307 105.275 26.988V22.188H106.939V26.988ZM115.357 22.732C115.72 23.1587 115.976 23.5533 116.125 23.916C116.285 24.268 116.365 24.636 116.365 25.02C116.365 25.756 116.104 26.3533 115.581 26.812C115.069 27.2707 114.349 27.5 113.421 27.5H109.005L108.845 25.772H113.421C113.826 25.772 114.141 25.7027 114.365 25.564C114.589 25.4147 114.701 25.2173 114.701 24.972C114.701 24.8013 114.653 24.636 114.557 24.476C114.472 24.3053 114.317 24.0867 114.093 23.82L111.213 20.476L112.381 19.292L115.357 22.732Z" fill="white"/>
</svg>
