<svg width="200" height="48" viewBox="0 0 200 48" fill="none" xmlns="http://www.w3.org/2000/svg">
<rect x="0.5" width="199" height="48" rx="8" fill="#F88D7D"/>
<rect x="0.5" width="199" height="48" rx="8" fill="#2C7EF8"/>
<path d="M51.3331 24.78C51.3331 25.0893 51.4237 25.3347 51.6051 25.516C51.7971 25.6867 52.0691 25.772 52.4211 25.772H52.7891C52.8957 25.772 52.9491 26.0707 52.9491 26.668C52.9491 27.2227 52.8957 27.5 52.7891 27.5H52.4851C52.2397 27.5 52.0104 27.468 51.7971 27.404C51.5944 27.34 51.4397 27.26 51.3331 27.164V27.244C51.3117 28.044 51.1144 28.7587 50.7411 29.388C50.3677 30.0173 49.8504 30.5027 49.1891 30.844C48.5277 31.196 47.7704 31.372 46.9171 31.372H46.2451C44.8797 31.372 43.8291 30.9773 43.0931 30.188C42.3571 29.4093 41.9891 28.3107 41.9891 26.892V23.788H43.6371V26.86C43.6371 28.716 44.5117 29.644 46.2611 29.644H46.9171C47.7704 29.644 48.4424 29.4093 48.9331 28.94C49.4237 28.4707 49.6691 27.8253 49.6691 27.004V22.188H51.3331V24.78ZM45.3811 21.804V20.236H47.3011V21.804H45.3811ZM54.0531 25.772C54.4904 25.772 54.8211 25.676 55.0451 25.484C55.2691 25.2813 55.3811 24.9987 55.3811 24.636V22.188H57.0451V24.636C57.0451 25.3933 57.4771 25.772 58.3411 25.772C58.7784 25.772 59.1091 25.676 59.3331 25.484C59.5571 25.2813 59.6691 24.9987 59.6691 24.636V22.188H61.3331V24.636C61.3331 24.9987 61.4344 25.2813 61.6371 25.484C61.8397 25.676 62.1437 25.772 62.5491 25.772C62.9651 25.772 63.2744 25.676 63.4771 25.484C63.6904 25.2813 63.7971 24.9987 63.7971 24.636V22.188H65.4451V24.636C65.4451 25.3933 65.8131 25.772 66.5491 25.772H67.1091C67.2157 25.772 67.2691 26.0707 67.2691 26.668C67.2691 27.2227 67.2157 27.5 67.1091 27.5H66.5491C66.0264 27.5 65.5997 27.4307 65.2691 27.292C64.9491 27.1533 64.7091 26.9347 64.5491 26.636C64.3464 26.9347 64.0797 27.1533 63.7491 27.292C63.4291 27.4307 63.0291 27.5 62.5491 27.5C61.4611 27.5 60.7571 27.1907 60.4371 26.572C60.0211 27.1907 59.3224 27.5 58.3411 27.5C57.7437 27.5 57.2691 27.4253 56.9171 27.276C56.5651 27.116 56.3091 26.8813 56.1491 26.572C55.7331 27.1907 55.0344 27.5 54.0531 27.5H52.7891C52.6824 27.5 52.6291 27.2227 52.6291 26.668C52.6291 26.0707 52.6824 25.772 52.7891 25.772H54.0531ZM61.2851 16.476V17.964H59.6051V16.476H61.2851ZM62.6131 18.828V20.364H58.2611V18.828H62.6131ZM69.0216 25.772C69.3629 25.772 69.6349 25.6867 69.8376 25.516C70.0509 25.3347 70.1576 25.084 70.1576 24.764V22.188H71.8216V24.7C71.8216 25.4147 72.1896 25.772 72.9256 25.772H73.4696C73.5762 25.772 73.6296 26.0653 73.6296 26.652C73.6296 27.2173 73.5762 27.5 73.4696 27.5H72.8616C71.9122 27.5 71.2829 27.212 70.9736 26.636C70.6002 27.212 69.9496 27.5 69.0216 27.5H67.1016C66.9949 27.5 66.9416 27.2227 66.9416 26.668C66.9416 26.0707 66.9949 25.772 67.1016 25.772H69.0216ZM70.4296 29.372V30.908H66.0776V29.372H70.4296ZM77.8446 25.772C78.2499 25.772 78.5646 25.7027 78.7886 25.564C79.0126 25.4147 79.1246 25.2173 79.1246 24.972C79.1246 24.7693 79.0766 24.5827 78.9806 24.412C78.8846 24.2413 78.7299 24.044 78.5166 23.82L74.9006 20.252V18.86L80.8206 16.54L81.3166 18.124L76.8846 19.82L79.7486 22.716C80.7299 23.6867 81.4499 24.38 81.9086 24.796C82.3779 25.2013 82.7512 25.468 83.0286 25.596C83.3059 25.7133 83.6259 25.772 83.9886 25.772C84.0952 25.772 84.1486 26.0707 84.1486 26.668C84.1486 27.2227 84.0952 27.5 83.9886 27.5C83.4872 27.5 83.0766 27.4627 82.7566 27.388C82.4472 27.3027 82.1272 27.1427 81.7966 26.908C81.4766 26.6733 81.0659 26.3053 80.5646 25.804C80.4472 26.3267 80.1486 26.7427 79.6686 27.052C79.1886 27.3507 78.5806 27.5 77.8446 27.5H73.4766C73.3699 27.5 73.3166 27.2227 73.3166 26.668C73.3166 26.0707 73.3699 25.772 73.4766 25.772H77.8446ZM85.9122 25.772C86.2535 25.772 86.5255 25.6867 86.7282 25.516C86.9415 25.3347 87.0482 25.084 87.0482 24.764V22.188H88.7122V24.7C88.7122 25.4147 89.0802 25.772 89.8162 25.772H90.3602C90.4669 25.772 90.5202 26.0653 90.5202 26.652C90.5202 27.2173 90.4669 27.5 90.3602 27.5H89.7522C88.8029 27.5 88.1735 27.212 87.8642 26.636C87.4909 27.212 86.8402 27.5 85.9122 27.5H83.9922C83.8855 27.5 83.8322 27.2227 83.8322 26.668C83.8322 26.0707 83.8855 25.772 83.9922 25.772H85.9122ZM87.3202 29.372V30.908H82.9682V29.372H87.3202ZM90.8952 25.772C91.2259 25.772 91.4925 25.6867 91.6952 25.516C91.8979 25.3347 91.9992 25.084 91.9992 24.764V17.164H93.6632V24.684C93.6632 25.0467 93.7592 25.3187 93.9512 25.5C94.1432 25.6813 94.4099 25.772 94.7512 25.772H95.1832C95.2899 25.772 95.3432 26.0653 95.3432 26.652C95.3432 27.2173 95.2899 27.5 95.1832 27.5H94.6712C94.2125 27.5 93.8232 27.4253 93.5032 27.276C93.1939 27.1267 92.9699 26.908 92.8312 26.62C92.4472 27.2067 91.8019 27.5 90.8952 27.5H90.3672C90.2605 27.5 90.2072 27.2227 90.2072 26.668C90.2072 26.0707 90.2605 25.772 90.3672 25.772H90.8952ZM99.5797 24.812C99.5797 25.6547 99.329 26.316 98.8277 26.796C98.3264 27.2653 97.6544 27.5 96.8117 27.5H95.1797C95.073 27.5 95.0197 27.2227 95.0197 26.668C95.0197 26.0707 95.073 25.772 95.1797 25.772H96.8117C97.1424 25.772 97.409 25.6867 97.6117 25.516C97.8144 25.3347 97.9157 25.084 97.9157 24.764V22.188H99.5797V24.812ZM98.6357 29.372V30.908H94.2837V29.372H98.6357ZM95.6597 33.26V31.772H97.2597V33.26H95.6597ZM102.118 17.164H103.766V27.5H102.118V17.164ZM116.275 24.396C116.275 24.8867 116.36 25.2387 116.531 25.452C116.701 25.6653 116.952 25.772 117.283 25.772H117.731C117.784 25.772 117.821 25.8307 117.843 25.948C117.875 26.0653 117.891 26.3053 117.891 26.668C117.891 27.0093 117.875 27.2333 117.843 27.34C117.821 27.4467 117.784 27.5 117.731 27.5H117.283C116.696 27.5 116.216 27.3933 115.843 27.18C115.48 26.956 115.229 26.5987 115.091 26.108C114.867 26.3213 114.563 26.4813 114.179 26.588C113.795 26.6947 113.389 26.748 112.963 26.748C112.024 26.748 111.309 26.4973 110.819 25.996C110.328 25.484 110.083 24.732 110.083 23.74C110.083 23.1427 110.216 22.5933 110.483 22.092C110.749 21.58 111.123 21.1747 111.603 20.876C112.093 20.5667 112.653 20.412 113.283 20.412H114.627V19.34H116.275V24.396ZM111.731 23.724C111.731 24.588 112.168 25.02 113.043 25.02C113.544 25.02 113.933 24.9347 114.211 24.764C114.488 24.5827 114.627 24.3373 114.627 24.028V22.076H113.283C112.792 22.076 112.408 22.22 112.131 22.508C111.864 22.7853 111.731 23.1907 111.731 23.724ZM122.127 24.812C122.127 25.6547 121.876 26.316 121.375 26.796C120.873 27.2653 120.201 27.5 119.359 27.5H117.727C117.62 27.5 117.567 27.2227 117.567 26.668C117.567 26.0707 117.62 25.772 117.727 25.772H119.359C119.689 25.772 119.956 25.6867 120.159 25.516C120.361 25.3347 120.463 25.084 120.463 24.764V22.188H122.127V24.812ZM118.047 30.94V29.372H119.967V30.94H118.047ZM134.287 22.732C134.649 23.1587 134.905 23.5533 135.055 23.916C135.215 24.268 135.295 24.636 135.295 25.02C135.295 25.756 135.033 26.3533 134.511 26.812C133.999 27.2707 133.279 27.5 132.351 27.5H127.935L127.775 25.772H132.351C132.756 25.772 133.071 25.7027 133.295 25.564C133.519 25.4147 133.631 25.2173 133.631 24.972C133.631 24.8013 133.583 24.636 133.487 24.476C133.401 24.3053 133.247 24.0867 133.023 23.82L130.143 20.476L131.311 19.292L134.287 22.732ZM143.885 26.924C143.885 27.8413 143.714 28.6307 143.373 29.292C143.031 29.964 142.546 30.476 141.917 30.828C141.298 31.1907 140.567 31.372 139.725 31.372H137.661L137.517 29.644H139.773C140.53 29.644 141.127 29.452 141.565 29.068C142.002 28.684 142.226 28.1613 142.237 27.5H140.861C139.73 27.5 138.919 27.2707 138.429 26.812C137.938 26.3427 137.693 25.612 137.693 24.62C137.693 23.9373 137.821 23.3347 138.077 22.812C138.343 22.2893 138.711 21.884 139.181 21.596C139.661 21.2973 140.21 21.148 140.829 21.148C141.778 21.148 142.525 21.468 143.069 22.108C143.613 22.7373 143.885 23.6013 143.885 24.7V26.924ZM139.357 24.54C139.357 24.988 139.474 25.308 139.709 25.5C139.943 25.6813 140.354 25.772 140.941 25.772H142.237V24.732C142.237 24.1027 142.109 23.628 141.853 23.308C141.597 22.9773 141.229 22.812 140.749 22.812C140.311 22.812 139.97 22.972 139.725 23.292C139.479 23.6013 139.357 24.0173 139.357 24.54ZM149.415 26.988C149.415 27.8733 149.239 28.6467 148.887 29.308C148.535 29.9693 148.034 30.476 147.383 30.828C146.743 31.1907 145.997 31.372 145.143 31.372H144.679L144.535 29.644H145.127C145.949 29.644 146.589 29.4093 147.047 28.94C147.517 28.4813 147.751 27.8307 147.751 26.988V22.188H149.415V26.988ZM158.01 26.924C158.01 27.8413 157.839 28.6307 157.498 29.292C157.156 29.964 156.671 30.476 156.042 30.828C155.423 31.1907 154.692 31.372 153.85 31.372H151.786L151.642 29.644H153.898C154.655 29.644 155.252 29.452 155.69 29.068C156.127 28.684 156.351 28.1613 156.362 27.5H154.986C153.855 27.5 153.044 27.2707 152.554 26.812C152.063 26.3427 151.818 25.612 151.818 24.62C151.818 23.9373 151.946 23.3347 152.202 22.812C152.468 22.2893 152.836 21.884 153.306 21.596C153.786 21.2973 154.335 21.148 154.954 21.148C155.903 21.148 156.65 21.468 157.194 22.108C157.738 22.7373 158.01 23.6013 158.01 24.7V26.924ZM153.482 24.54C153.482 24.988 153.599 25.308 153.834 25.5C154.068 25.6813 154.479 25.772 155.066 25.772H156.362V24.732C156.362 24.1027 156.234 23.628 155.978 23.308C155.722 22.9773 155.354 22.812 154.874 22.812C154.436 22.812 154.095 22.972 153.85 23.292C153.604 23.6013 153.482 24.0173 153.482 24.54Z" fill="white"/>
</svg>
