<svg width="17" height="16" viewBox="0 0 17 16" fill="none" xmlns="http://www.w3.org/2000/svg">
<path d="M7.86683 9.96671L6.6335 11.2C6.3735 11.46 5.96016 11.46 5.6935 11.2067C5.62016 11.1334 5.54683 11.0667 5.4735 10.9934C4.78683 10.3 4.16683 9.57337 3.6135 8.81337C3.06683 8.05337 2.62683 7.29337 2.30683 6.54004C1.9935 5.78004 1.8335 5.05337 1.8335 4.36004C1.8335 3.90671 1.9135 3.47337 2.0735 3.07337C2.2335 2.66671 2.48683 2.29337 2.84016 1.96004C3.26683 1.54004 3.7335 1.33337 4.22683 1.33337C4.4135 1.33337 4.60016 1.37337 4.76683 1.45337C4.94016 1.53337 5.0935 1.65337 5.2135 1.82671L6.76016 4.00671C6.88016 4.17337 6.96683 4.32671 7.02683 4.47337C7.08683 4.61337 7.12016 4.75337 7.12016 4.88004C7.12016 5.04004 7.0735 5.20004 6.98016 5.35337C6.8935 5.50671 6.76683 5.66671 6.60683 5.82671L6.10016 6.35337C6.02683 6.42671 5.9935 6.51337 5.9935 6.62004C5.9935 6.67337 6.00016 6.72004 6.0135 6.77337C6.0335 6.82671 6.0535 6.86671 6.06683 6.90671C6.18683 7.12671 6.3935 7.41337 6.68683 7.76004C6.98683 8.10671 7.30683 8.46004 7.6535 8.81337C7.72016 8.88004 7.7935 8.94671 7.86016 9.01337C8.12683 9.27337 8.1335 9.70004 7.86683 9.96671Z" fill="white"/>
<path d="M15.1466 12.22C15.1466 12.4067 15.1132 12.6 15.0466 12.7867C15.0266 12.84 15.0066 12.8933 14.9799 12.9467C14.8666 13.1867 14.7199 13.4133 14.5266 13.6267C14.1999 13.9867 13.8399 14.2467 13.4332 14.4133C13.4266 14.4133 13.4199 14.42 13.4132 14.42C13.0199 14.58 12.5932 14.6667 12.1332 14.6667C11.4532 14.6667 10.7266 14.5067 9.9599 14.18C9.19324 13.8533 8.42657 13.4133 7.66657 12.86C7.40657 12.6667 7.14657 12.4733 6.8999 12.2667L9.0799 10.0867C9.26657 10.2267 9.43324 10.3333 9.57324 10.4067C9.60657 10.42 9.64657 10.44 9.69324 10.46C9.74657 10.48 9.7999 10.4867 9.8599 10.4867C9.97324 10.4867 10.0599 10.4467 10.1332 10.3733L10.6399 9.87332C10.8066 9.70665 10.9666 9.57999 11.1199 9.49999C11.2732 9.40665 11.4266 9.35999 11.5932 9.35999C11.7199 9.35999 11.8532 9.38665 11.9999 9.44665C12.1466 9.50665 12.2999 9.59332 12.4666 9.70665L14.6732 11.2733C14.8466 11.3933 14.9666 11.5333 15.0399 11.7C15.1066 11.8667 15.1466 12.0333 15.1466 12.22Z" fill="white"/>
</svg>
