<svg width="40" height="40" viewBox="0 0 40 40" fill="none" xmlns="http://www.w3.org/2000/svg">
<rect x="0.5" y="0.5" width="39" height="39" rx="5.5" stroke="#2F3132"/>
<path fill-rule="evenodd" clip-rule="evenodd" d="M18.4528 10.3565C19.0564 10.9241 18.9109 11.7831 18.6347 12.4172L18.6342 12.4184C18.2218 13.361 17.9951 14.3943 18.0035 15.4873L18.0035 15.49C18.0203 19.5459 21.3928 23.0084 25.5236 23.1774L25.5242 23.1774C26.1343 23.2028 26.7172 23.1605 27.2833 23.0592C27.6624 22.9902 28.0349 22.9778 28.3709 23.0562C28.7138 23.1361 29.059 23.3233 29.2736 23.6744C29.4872 24.0239 29.4971 24.4148 29.4166 24.7535C29.3374 25.087 29.1632 25.4135 28.9364 25.7209C26.9612 28.4231 23.6734 30.1339 20.0045 29.9748L20.004 29.9748C14.7969 29.7458 10.4391 25.5811 10.0785 20.4289C9.74905 15.8621 12.4596 11.8854 16.398 10.2246C17.0308 9.95654 17.8725 9.81093 18.4528 10.3565ZM17.3648 11.4913C17.2774 11.503 17.1504 11.5348 16.9822 11.6061L16.9809 11.6067C13.5956 13.0343 11.2941 16.4367 11.5746 20.3217L11.5747 20.3234C11.8804 24.6955 15.6043 28.2796 20.0695 28.4762C23.2245 28.613 26.0394 27.1433 27.7264 24.8344L27.7287 24.8312C27.8304 24.6936 27.8903 24.5838 27.9243 24.5035C27.8389 24.4992 27.7164 24.5049 27.5511 24.5351L27.5487 24.5355C26.876 24.656 26.1834 24.7061 25.4623 24.6761C20.5496 24.4752 16.5245 20.374 16.5035 15.4975C16.4936 14.1869 16.7662 12.946 17.2597 11.8177C17.3217 11.6752 17.3516 11.5671 17.3648 11.4913ZM17.4874 11.4888C17.4874 11.4888 17.4869 11.4887 17.486 11.4885L17.4874 11.4888Z" fill="#D8D8D8"/>
</svg>
