<svg width="574" height="61" viewBox="0 0 574 61" fill="none" xmlns="http://www.w3.org/2000/svg">
<path d="M0.5 30.5L223.5 30.5" stroke="#E9E9E9"/>
<path d="M251.48 32.84C251.907 32.84 252.247 32.7333 252.5 32.52C252.767 32.2933 252.9 31.9867 252.9 31.6V28.36H254.98V31.5C254.98 32.3933 255.44 32.84 256.36 32.84H257.04C257.173 32.84 257.24 33.2133 257.24 33.96C257.24 34.6533 257.173 35 257.04 35H256.28C255.093 35 254.307 34.64 253.92 33.92C253.453 34.64 252.64 35 251.48 35H244.62C243.433 35 242.533 34.6933 241.92 34.08C241.307 33.4533 241 32.5733 241 31.44V28.36H243.06V31.16C243.06 31.72 243.193 32.14 243.46 32.42C243.727 32.7 244.147 32.84 244.72 32.84H251.48ZM250.7 24.92V26.84H245.26V24.92H250.7ZM258.619 32.84C259.166 32.84 259.579 32.72 259.859 32.48C260.139 32.2267 260.279 31.8733 260.279 31.42V28.36H262.359V31.42C262.359 32.3667 262.899 32.84 263.979 32.84C264.526 32.84 264.939 32.72 265.219 32.48C265.499 32.2267 265.639 31.8733 265.639 31.42V28.36H267.719V31.42C267.719 31.8733 267.846 32.2267 268.099 32.48C268.352 32.72 268.732 32.84 269.239 32.84C269.759 32.84 270.146 32.72 270.399 32.48C270.666 32.2267 270.799 31.8733 270.799 31.42V28.36H272.859V31.42C272.859 32.3667 273.319 32.84 274.239 32.84H274.939C275.072 32.84 275.139 33.2133 275.139 33.96C275.139 34.6533 275.072 35 274.939 35H274.239C273.586 35 273.052 34.9133 272.639 34.74C272.239 34.5667 271.939 34.2933 271.739 33.92C271.486 34.2933 271.152 34.5667 270.739 34.74C270.339 34.9133 269.839 35 269.239 35C267.879 35 266.999 34.6133 266.599 33.84C266.079 34.6133 265.206 35 263.979 35C263.232 35 262.639 34.9067 262.199 34.72C261.759 34.52 261.439 34.2267 261.239 33.84C260.719 34.6133 259.846 35 258.619 35H257.039C256.906 35 256.839 34.6533 256.839 33.96C256.839 33.2133 256.906 32.84 257.039 32.84H258.619ZM277.33 32.84C277.756 32.84 278.096 32.7333 278.35 32.52C278.616 32.2933 278.75 31.98 278.75 31.58V28.36H280.83V31.5C280.83 32.3933 281.29 32.84 282.21 32.84H282.89C283.023 32.84 283.09 33.2067 283.09 33.94C283.09 34.6467 283.023 35 282.89 35H282.13C280.943 35 280.156 34.64 279.77 33.92C279.303 34.64 278.49 35 277.33 35H274.93C274.796 35 274.73 34.6533 274.73 33.96C274.73 33.2133 274.796 32.84 274.93 32.84H277.33ZM279.09 37.34V39.26H273.65V37.34H279.09ZM283.558 32.84C283.972 32.84 284.305 32.7333 284.558 32.52C284.812 32.2933 284.938 31.98 284.938 31.58V22.08H287.018V31.64C287.018 32.6933 286.705 33.52 286.078 34.12C285.465 34.7067 284.625 35 283.558 35H282.898C282.765 35 282.698 34.6533 282.698 33.96C282.698 33.2133 282.765 32.84 282.898 32.84H283.558ZM295.087 22.08H297.147V35H295.087V22.08ZM303.525 31.44C303.525 32.3733 304.032 32.84 305.045 32.84H305.325C305.458 32.84 305.525 33.2133 305.525 33.96C305.525 34.6533 305.458 35 305.325 35H305.045C304.712 35 304.405 34.9533 304.125 34.86C303.858 34.7533 303.658 34.6133 303.525 34.44V34.56C303.498 35.6 303.258 36.52 302.805 37.32C302.365 38.12 301.745 38.74 300.945 39.18C300.158 39.62 299.238 39.84 298.185 39.84H296.685L296.505 37.68H298.165C299.192 37.68 299.992 37.3867 300.565 36.8C301.152 36.2267 301.445 35.4133 301.445 34.36V28.36H303.525V31.44ZM310.82 31.64C310.82 32.6933 310.507 33.52 309.88 34.12C309.254 34.7067 308.414 35 307.36 35H305.32C305.187 35 305.12 34.6533 305.12 33.96C305.12 33.2133 305.187 32.84 305.32 32.84H307.36C307.774 32.84 308.107 32.7333 308.36 32.52C308.614 32.2933 308.74 31.98 308.74 31.58V28.36H310.82V31.64ZM307.32 25.12C306.974 24.9467 306.7 24.6933 306.5 24.36C306.314 24.0267 306.22 23.68 306.22 23.32C306.22 22.6133 306.44 22.0467 306.88 21.62C307.334 21.18 307.927 20.96 308.66 20.96H309.68V22.28H308.66C308.327 22.28 308.047 22.38 307.82 22.58C307.607 22.7667 307.5 23 307.5 23.28C307.5 23.6 307.607 23.86 307.82 24.06C308.034 24.2467 308.287 24.34 308.58 24.34C308.754 24.34 308.954 24.2933 309.18 24.2C309.407 24.1067 309.66 23.9867 309.94 23.84C310.22 23.6933 310.407 23.5933 310.5 23.54L311 24.7L306.76 26.9L306.14 25.72L307.32 25.12ZM323.293 32.84C323.426 32.84 323.493 33.2133 323.493 33.96C323.493 34.6533 323.426 35 323.293 35H321.513C321.38 36.52 320.853 37.7067 319.933 38.56C319.026 39.4133 317.833 39.84 316.353 39.84H313.773L313.593 37.68H316.413C317.36 37.68 318.106 37.44 318.653 36.96C319.2 36.48 319.48 35.8267 319.493 35H317.773C316.36 35 315.346 34.7133 314.733 34.14C314.12 33.5533 313.813 32.64 313.813 31.4C313.813 30.5467 313.973 29.7933 314.293 29.14C314.626 28.4867 315.086 27.98 315.673 27.62C316.273 27.2467 316.96 27.06 317.733 27.06C318.92 27.06 319.853 27.46 320.533 28.26C321.213 29.0467 321.553 30.1267 321.553 31.5V32.84H323.293ZM315.893 31.3C315.893 31.86 316.04 32.26 316.333 32.5C316.626 32.7267 317.14 32.84 317.873 32.84H319.493V31.54C319.493 30.7533 319.333 30.16 319.013 29.76C318.693 29.3467 318.233 29.14 317.633 29.14C317.086 29.14 316.66 29.34 316.353 29.74C316.046 30.1267 315.893 30.6467 315.893 31.3ZM328.749 32.84C329.256 32.84 329.649 32.7533 329.929 32.58C330.209 32.3933 330.349 32.1467 330.349 31.84C330.349 31.5867 330.289 31.3533 330.169 31.14C330.049 30.9267 329.856 30.68 329.589 30.4L325.069 25.94V24.2L332.469 21.3L333.089 23.28L327.549 25.4L331.149 29.04C331.989 29.8667 332.409 30.82 332.409 31.9C332.409 32.82 332.089 33.5667 331.449 34.14C330.809 34.7133 329.909 35 328.749 35H323.289C323.156 35 323.089 34.6533 323.089 33.96C323.089 33.2133 323.156 32.84 323.289 32.84H328.749Z" fill="white"/>
<path d="M350.5 30.5L573.5 30.5" stroke="#E9E9E9"/>
</svg>
