<svg width="220" height="48" viewBox="0 0 220 48" fill="none" xmlns="http://www.w3.org/2000/svg">
<rect width="220" height="48" rx="8" fill="#F88D7D"/>
<rect width="220" height="48" rx="8" fill="#3A86F8"/>
<path d="M61.3331 24.78C61.3331 25.0893 61.4237 25.3347 61.6051 25.516C61.7971 25.6867 62.0691 25.772 62.4211 25.772H62.7891C62.8957 25.772 62.9491 26.0707 62.9491 26.668C62.9491 27.2227 62.8957 27.5 62.7891 27.5H62.4851C62.2397 27.5 62.0104 27.468 61.7971 27.404C61.5944 27.34 61.4397 27.26 61.3331 27.164V27.244C61.3117 28.044 61.1144 28.7587 60.7411 29.388C60.3677 30.0173 59.8504 30.5027 59.1891 30.844C58.5277 31.196 57.7704 31.372 56.9171 31.372H56.2451C54.8797 31.372 53.8291 30.9773 53.0931 30.188C52.3571 29.4093 51.9891 28.3107 51.9891 26.892V23.788H53.6371V26.86C53.6371 28.716 54.5117 29.644 56.2611 29.644H56.9171C57.7704 29.644 58.4424 29.4093 58.9331 28.94C59.4237 28.4707 59.6691 27.8253 59.6691 27.004V22.188H61.3331V24.78ZM55.3811 21.804V20.236H57.3011V21.804H55.3811ZM64.0531 25.772C64.4904 25.772 64.8211 25.676 65.0451 25.484C65.2691 25.2813 65.3811 24.9987 65.3811 24.636V22.188H67.0451V24.636C67.0451 25.3933 67.4771 25.772 68.3411 25.772C68.7784 25.772 69.1091 25.676 69.3331 25.484C69.5571 25.2813 69.6691 24.9987 69.6691 24.636V22.188H71.3331V24.636C71.3331 24.9987 71.4344 25.2813 71.6371 25.484C71.8397 25.676 72.1437 25.772 72.5491 25.772C72.9651 25.772 73.2744 25.676 73.4771 25.484C73.6904 25.2813 73.7971 24.9987 73.7971 24.636V22.188H75.4451V24.636C75.4451 25.3933 75.8131 25.772 76.5491 25.772H77.1091C77.2157 25.772 77.2691 26.0707 77.2691 26.668C77.2691 27.2227 77.2157 27.5 77.1091 27.5H76.5491C76.0264 27.5 75.5997 27.4307 75.2691 27.292C74.9491 27.1533 74.7091 26.9347 74.5491 26.636C74.3464 26.9347 74.0797 27.1533 73.7491 27.292C73.4291 27.4307 73.0291 27.5 72.5491 27.5C71.4611 27.5 70.7571 27.1907 70.4371 26.572C70.0211 27.1907 69.3224 27.5 68.3411 27.5C67.7437 27.5 67.2691 27.4253 66.9171 27.276C66.5651 27.116 66.3091 26.8813 66.1491 26.572C65.7331 27.1907 65.0344 27.5 64.0531 27.5H62.7891C62.6824 27.5 62.6291 27.2227 62.6291 26.668C62.6291 26.0707 62.6824 25.772 62.7891 25.772H64.0531ZM71.2851 16.476V17.964H69.6051V16.476H71.2851ZM72.6131 18.828V20.364H68.2611V18.828H72.6131ZM79.0216 25.772C79.3629 25.772 79.6349 25.6867 79.8376 25.516C80.0509 25.3347 80.1576 25.084 80.1576 24.764V22.188H81.8216V24.7C81.8216 25.4147 82.1896 25.772 82.9256 25.772H83.4696C83.5762 25.772 83.6296 26.0653 83.6296 26.652C83.6296 27.2173 83.5762 27.5 83.4696 27.5H82.8616C81.9122 27.5 81.2829 27.212 80.9736 26.636C80.6002 27.212 79.9496 27.5 79.0216 27.5H77.1016C76.9949 27.5 76.9416 27.2227 76.9416 26.668C76.9416 26.0707 76.9949 25.772 77.1016 25.772H79.0216ZM80.4296 29.372V30.908H76.0776V29.372H80.4296ZM87.8446 25.772C88.2499 25.772 88.5646 25.7027 88.7886 25.564C89.0126 25.4147 89.1246 25.2173 89.1246 24.972C89.1246 24.7693 89.0766 24.5827 88.9806 24.412C88.8846 24.2413 88.7299 24.044 88.5166 23.82L84.9006 20.252V18.86L90.8206 16.54L91.3166 18.124L86.8846 19.82L89.7486 22.716C90.7299 23.6867 91.4499 24.38 91.9086 24.796C92.3779 25.2013 92.7512 25.468 93.0286 25.596C93.3059 25.7133 93.6259 25.772 93.9886 25.772C94.0952 25.772 94.1486 26.0707 94.1486 26.668C94.1486 27.2227 94.0952 27.5 93.9886 27.5C93.4872 27.5 93.0766 27.4627 92.7566 27.388C92.4472 27.3027 92.1272 27.1427 91.7966 26.908C91.4766 26.6733 91.0659 26.3053 90.5646 25.804C90.4472 26.3267 90.1486 26.7427 89.6686 27.052C89.1886 27.3507 88.5806 27.5 87.8446 27.5H83.4766C83.3699 27.5 83.3166 27.2227 83.3166 26.668C83.3166 26.0707 83.3699 25.772 83.4766 25.772H87.8446ZM95.9122 25.772C96.2535 25.772 96.5255 25.6867 96.7282 25.516C96.9415 25.3347 97.0482 25.084 97.0482 24.764V22.188H98.7122V24.7C98.7122 25.4147 99.0802 25.772 99.8162 25.772H100.36C100.467 25.772 100.52 26.0653 100.52 26.652C100.52 27.2173 100.467 27.5 100.36 27.5H99.7522C98.8029 27.5 98.1735 27.212 97.8642 26.636C97.4909 27.212 96.8402 27.5 95.9122 27.5H93.9922C93.8855 27.5 93.8322 27.2227 93.8322 26.668C93.8322 26.0707 93.8855 25.772 93.9922 25.772H95.9122ZM97.3202 29.372V30.908H92.9682V29.372H97.3202ZM100.895 25.772C101.226 25.772 101.493 25.6867 101.695 25.516C101.898 25.3347 101.999 25.084 101.999 24.764V17.164H103.663V24.684C103.663 25.0467 103.759 25.3187 103.951 25.5C104.143 25.6813 104.41 25.772 104.751 25.772H105.183C105.29 25.772 105.343 26.0653 105.343 26.652C105.343 27.2173 105.29 27.5 105.183 27.5H104.671C104.213 27.5 103.823 27.4253 103.503 27.276C103.194 27.1267 102.97 26.908 102.831 26.62C102.447 27.2067 101.802 27.5 100.895 27.5H100.367C100.261 27.5 100.207 27.2227 100.207 26.668C100.207 26.0707 100.261 25.772 100.367 25.772H100.895ZM109.58 24.812C109.58 25.6547 109.329 26.316 108.828 26.796C108.326 27.2653 107.654 27.5 106.812 27.5H105.18C105.073 27.5 105.02 27.2227 105.02 26.668C105.02 26.0707 105.073 25.772 105.18 25.772H106.812C107.142 25.772 107.409 25.6867 107.612 25.516C107.814 25.3347 107.916 25.084 107.916 24.764V22.188H109.58V24.812ZM108.636 29.372V30.908H104.284V29.372H108.636ZM105.66 33.26V31.772H107.26V33.26H105.66ZM112.118 17.164H113.766V27.5H112.118V17.164ZM126.275 24.396C126.275 24.8867 126.36 25.2387 126.531 25.452C126.701 25.6653 126.952 25.772 127.283 25.772H127.731C127.784 25.772 127.821 25.8307 127.843 25.948C127.875 26.0653 127.891 26.3053 127.891 26.668C127.891 27.0093 127.875 27.2333 127.843 27.34C127.821 27.4467 127.784 27.5 127.731 27.5H127.283C126.696 27.5 126.216 27.3933 125.843 27.18C125.48 26.956 125.229 26.5987 125.091 26.108C124.867 26.3213 124.563 26.4813 124.179 26.588C123.795 26.6947 123.389 26.748 122.963 26.748C122.024 26.748 121.309 26.4973 120.819 25.996C120.328 25.484 120.083 24.732 120.083 23.74C120.083 23.1427 120.216 22.5933 120.483 22.092C120.749 21.58 121.123 21.1747 121.603 20.876C122.093 20.5667 122.653 20.412 123.283 20.412H124.627V19.34H126.275V24.396ZM121.731 23.724C121.731 24.588 122.168 25.02 123.043 25.02C123.544 25.02 123.933 24.9347 124.211 24.764C124.488 24.5827 124.627 24.3373 124.627 24.028V22.076H123.283C122.792 22.076 122.408 22.22 122.131 22.508C121.864 22.7853 121.731 23.1907 121.731 23.724ZM132.127 24.812C132.127 25.6547 131.876 26.316 131.375 26.796C130.873 27.2653 130.201 27.5 129.359 27.5H127.727C127.62 27.5 127.567 27.2227 127.567 26.668C127.567 26.0707 127.62 25.772 127.727 25.772H129.359C129.689 25.772 129.956 25.6867 130.159 25.516C130.361 25.3347 130.463 25.084 130.463 24.764V22.188H132.127V24.812ZM128.047 30.94V29.372H129.967V30.94H128.047ZM144.287 22.732C144.649 23.1587 144.905 23.5533 145.055 23.916C145.215 24.268 145.295 24.636 145.295 25.02C145.295 25.756 145.033 26.3533 144.511 26.812C143.999 27.2707 143.279 27.5 142.351 27.5H137.935L137.775 25.772H142.351C142.756 25.772 143.071 25.7027 143.295 25.564C143.519 25.4147 143.631 25.2173 143.631 24.972C143.631 24.8013 143.583 24.636 143.487 24.476C143.401 24.3053 143.247 24.0867 143.023 23.82L140.143 20.476L141.311 19.292L144.287 22.732ZM153.885 26.924C153.885 27.8413 153.714 28.6307 153.373 29.292C153.031 29.964 152.546 30.476 151.917 30.828C151.298 31.1907 150.567 31.372 149.725 31.372H147.661L147.517 29.644H149.773C150.53 29.644 151.127 29.452 151.565 29.068C152.002 28.684 152.226 28.1613 152.237 27.5H150.861C149.73 27.5 148.919 27.2707 148.429 26.812C147.938 26.3427 147.693 25.612 147.693 24.62C147.693 23.9373 147.821 23.3347 148.077 22.812C148.343 22.2893 148.711 21.884 149.181 21.596C149.661 21.2973 150.21 21.148 150.829 21.148C151.778 21.148 152.525 21.468 153.069 22.108C153.613 22.7373 153.885 23.6013 153.885 24.7V26.924ZM149.357 24.54C149.357 24.988 149.474 25.308 149.709 25.5C149.943 25.6813 150.354 25.772 150.941 25.772H152.237V24.732C152.237 24.1027 152.109 23.628 151.853 23.308C151.597 22.9773 151.229 22.812 150.749 22.812C150.311 22.812 149.97 22.972 149.725 23.292C149.479 23.6013 149.357 24.0173 149.357 24.54ZM159.415 26.988C159.415 27.8733 159.239 28.6467 158.887 29.308C158.535 29.9693 158.034 30.476 157.383 30.828C156.743 31.1907 155.997 31.372 155.143 31.372H154.679L154.535 29.644H155.127C155.949 29.644 156.589 29.4093 157.047 28.94C157.517 28.4813 157.751 27.8307 157.751 26.988V22.188H159.415V26.988ZM168.01 26.924C168.01 27.8413 167.839 28.6307 167.498 29.292C167.156 29.964 166.671 30.476 166.042 30.828C165.423 31.1907 164.692 31.372 163.85 31.372H161.786L161.642 29.644H163.898C164.655 29.644 165.252 29.452 165.69 29.068C166.127 28.684 166.351 28.1613 166.362 27.5H164.986C163.855 27.5 163.044 27.2707 162.554 26.812C162.063 26.3427 161.818 25.612 161.818 24.62C161.818 23.9373 161.946 23.3347 162.202 22.812C162.468 22.2893 162.836 21.884 163.306 21.596C163.786 21.2973 164.335 21.148 164.954 21.148C165.903 21.148 166.65 21.468 167.194 22.108C167.738 22.7373 168.01 23.6013 168.01 24.7V26.924ZM163.482 24.54C163.482 24.988 163.599 25.308 163.834 25.5C164.068 25.6813 164.479 25.772 165.066 25.772H166.362V24.732C166.362 24.1027 166.234 23.628 165.978 23.308C165.722 22.9773 165.354 22.812 164.874 22.812C164.436 22.812 164.095 22.972 163.85 23.292C163.604 23.6013 163.482 24.0173 163.482 24.54Z" fill="white"/>
</svg>
