<svg width="95" height="32" viewBox="0 0 95 32" fill="none" xmlns="http://www.w3.org/2000/svg">
<path d="M11.98 18.34C12.4067 18.34 12.7467 18.2333 13 18.02C13.2667 17.7933 13.4 17.4867 13.4 17.1V13.86H15.48V17C15.48 17.8933 15.94 18.34 16.86 18.34H17.54C17.6733 18.34 17.74 18.7133 17.74 19.46C17.74 20.1533 17.6733 20.5 17.54 20.5H16.78C15.5933 20.5 14.8067 20.14 14.42 19.42C13.9533 20.14 13.14 20.5 11.98 20.5H5.12C3.93333 20.5 3.03333 20.1933 2.42 19.58C1.80667 18.9533 1.5 18.0733 1.5 16.94V13.86H3.56V16.66C3.56 17.22 3.69333 17.64 3.96 17.92C4.22667 18.2 4.64667 18.34 5.22 18.34H11.98ZM11.2 10.42V12.34H5.76V10.42H11.2ZM19.1191 18.34C19.6657 18.34 20.0791 18.22 20.3591 17.98C20.6391 17.7267 20.7791 17.3733 20.7791 16.92V13.86H22.8591V16.92C22.8591 17.8667 23.3991 18.34 24.4791 18.34C25.0257 18.34 25.4391 18.22 25.7191 17.98C25.9991 17.7267 26.1391 17.3733 26.1391 16.92V13.86H28.2191V16.92C28.2191 17.3733 28.3457 17.7267 28.5991 17.98C28.8524 18.22 29.2324 18.34 29.7391 18.34C30.2591 18.34 30.6457 18.22 30.8991 17.98C31.1657 17.7267 31.2991 17.3733 31.2991 16.92V13.86H33.3591V16.92C33.3591 17.8667 33.8191 18.34 34.7391 18.34H35.4391C35.5724 18.34 35.6391 18.7133 35.6391 19.46C35.6391 20.1533 35.5724 20.5 35.4391 20.5H34.7391C34.0857 20.5 33.5524 20.4133 33.1391 20.24C32.7391 20.0667 32.4391 19.7933 32.2391 19.42C31.9857 19.7933 31.6524 20.0667 31.2391 20.24C30.8391 20.4133 30.3391 20.5 29.7391 20.5C28.3791 20.5 27.4991 20.1133 27.0991 19.34C26.5791 20.1133 25.7057 20.5 24.4791 20.5C23.7324 20.5 23.1391 20.4067 22.6991 20.22C22.2591 20.02 21.9391 19.7267 21.7391 19.34C21.2191 20.1133 20.3457 20.5 19.1191 20.5H17.5391C17.4057 20.5 17.3391 20.1533 17.3391 19.46C17.3391 18.7133 17.4057 18.34 17.5391 18.34H19.1191ZM37.8297 18.34C38.2564 18.34 38.5964 18.2333 38.8497 18.02C39.1164 17.7933 39.2497 17.48 39.2497 17.08V13.86H41.3297V17C41.3297 17.8933 41.7897 18.34 42.7097 18.34H43.3897C43.523 18.34 43.5897 18.7067 43.5897 19.44C43.5897 20.1467 43.523 20.5 43.3897 20.5H42.6297C41.443 20.5 40.6564 20.14 40.2697 19.42C39.803 20.14 38.9897 20.5 37.8297 20.5H35.4297C35.2964 20.5 35.2297 20.1533 35.2297 19.46C35.2297 18.7133 35.2964 18.34 35.4297 18.34H37.8297ZM39.5897 22.84V24.76H34.1497V22.84H39.5897ZM44.0584 18.34C44.4718 18.34 44.8051 18.2333 45.0584 18.02C45.3118 17.7933 45.4384 17.48 45.4384 17.08V7.58H47.5184V17.14C47.5184 18.1933 47.2051 19.02 46.5784 19.62C45.9651 20.2067 45.1251 20.5 44.0584 20.5H43.3984C43.2651 20.5 43.1984 20.1533 43.1984 19.46C43.1984 18.7133 43.2651 18.34 43.3984 18.34H44.0584ZM55.5867 7.58H57.6467V20.5H55.5867V7.58ZM64.025 16.94C64.025 17.8733 64.5317 18.34 65.545 18.34H65.825C65.9583 18.34 66.025 18.7133 66.025 19.46C66.025 20.1533 65.9583 20.5 65.825 20.5H65.545C65.2117 20.5 64.905 20.4533 64.625 20.36C64.3583 20.2533 64.1583 20.1133 64.025 19.94V20.06C63.9983 21.1 63.7583 22.02 63.305 22.82C62.865 23.62 62.245 24.24 61.445 24.68C60.6583 25.12 59.7383 25.34 58.685 25.34H57.185L57.005 23.18H58.665C59.6917 23.18 60.4917 22.8867 61.065 22.3C61.6517 21.7267 61.945 20.9133 61.945 19.86V13.86H64.025V16.94ZM71.3203 17.14C71.3203 18.1933 71.007 19.02 70.3803 19.62C69.7536 20.2067 68.9136 20.5 67.8603 20.5H65.8203C65.687 20.5 65.6203 20.1533 65.6203 19.46C65.6203 18.7133 65.687 18.34 65.8203 18.34H67.8603C68.2736 18.34 68.607 18.2333 68.8603 18.02C69.1136 17.7933 69.2403 17.48 69.2403 17.08V13.86H71.3203V17.14ZM67.8203 10.62C67.4736 10.4467 67.2003 10.1933 67.0003 9.86C66.8136 9.52667 66.7203 9.18 66.7203 8.82C66.7203 8.11333 66.9403 7.54667 67.3803 7.12C67.8336 6.68 68.427 6.46 69.1603 6.46H70.1803V7.78H69.1603C68.827 7.78 68.547 7.88 68.3203 8.08C68.107 8.26667 68.0003 8.5 68.0003 8.78C68.0003 9.1 68.107 9.36 68.3203 9.56C68.5336 9.74667 68.787 9.84 69.0803 9.84C69.2536 9.84 69.4536 9.79333 69.6803 9.7C69.907 9.60667 70.1603 9.48667 70.4403 9.34C70.7203 9.19333 70.907 9.09333 71.0003 9.04L71.5003 10.2L67.2603 12.4L66.6403 11.22L67.8203 10.62ZM83.793 18.34C83.9263 18.34 83.993 18.7133 83.993 19.46C83.993 20.1533 83.9263 20.5 83.793 20.5H82.013C81.8796 22.02 81.353 23.2067 80.433 24.06C79.5263 24.9133 78.333 25.34 76.853 25.34H74.273L74.093 23.18H76.913C77.8596 23.18 78.6063 22.94 79.153 22.46C79.6996 21.98 79.9796 21.3267 79.993 20.5H78.273C76.8596 20.5 75.8463 20.2133 75.233 19.64C74.6196 19.0533 74.313 18.14 74.313 16.9C74.313 16.0467 74.473 15.2933 74.793 14.64C75.1263 13.9867 75.5863 13.48 76.173 13.12C76.773 12.7467 77.4596 12.56 78.233 12.56C79.4196 12.56 80.353 12.96 81.033 13.76C81.713 14.5467 82.053 15.6267 82.053 17V18.34H83.793ZM76.393 16.8C76.393 17.36 76.5396 17.76 76.833 18C77.1263 18.2267 77.6396 18.34 78.373 18.34H79.993V17.04C79.993 16.2533 79.833 15.66 79.513 15.26C79.193 14.8467 78.733 14.64 78.133 14.64C77.5863 14.64 77.1596 14.84 76.853 15.24C76.5463 15.6267 76.393 16.1467 76.393 16.8ZM89.2491 18.34C89.7557 18.34 90.1491 18.2533 90.4291 18.08C90.7091 17.8933 90.8491 17.6467 90.8491 17.34C90.8491 17.0867 90.7891 16.8533 90.6691 16.64C90.5491 16.4267 90.3557 16.18 90.0891 15.9L85.5691 11.44V9.7L92.9691 6.8L93.5891 8.78L88.0491 10.9L91.6491 14.54C92.4891 15.3667 92.9091 16.32 92.9091 17.4C92.9091 18.32 92.5891 19.0667 91.9491 19.64C91.3091 20.2133 90.4091 20.5 89.2491 20.5H83.7891C83.6557 20.5 83.5891 20.1533 83.5891 19.46C83.5891 18.7133 83.6557 18.34 83.7891 18.34H89.2491Z" fill="white"/>
</svg>
