<svg width="296" height="40" viewBox="0 0 296 40" fill="none" xmlns="http://www.w3.org/2000/svg">
<rect width="296" height="40" rx="8" fill="#F88D7D"/>
<rect width="296" height="40" rx="8" fill="#2C7EF8"/>
<path d="M124.259 19.8C124.259 19.38 124.355 19.044 124.571 18.804H124.103C123.287 18.804 122.843 19.248 122.843 20.016V25.404H121.607V20.016C121.607 18.516 122.591 17.556 124.163 17.556H126.683C128.159 17.556 128.867 18.312 128.867 19.62V20.352C128.867 21.744 128.051 22.5 126.527 22.5C125.015 22.5 124.259 21.732 124.259 20.484V19.8ZM126.587 21.204C127.223 21.204 127.619 20.976 127.619 20.316V19.728C127.619 19.14 127.283 18.804 126.683 18.804H126.383C125.783 18.804 125.507 19.2 125.507 19.74V20.244C125.507 20.964 125.855 21.204 126.587 21.204ZM133.09 21.204C133.15 21.204 133.21 21.264 133.21 21.876C133.21 22.452 133.15 22.5 133.09 22.5H132.73C131.434 22.5 130.786 21.696 130.786 20.34V14.748H132.022V20.256C132.022 20.904 132.262 21.204 132.802 21.204H133.09ZM138.674 21.204C138.722 21.204 138.794 21.264 138.794 21.864C138.794 22.452 138.722 22.5 138.674 22.5H138.206C137.534 22.5 137.042 22.296 136.802 21.852C136.514 22.296 136.01 22.5 135.338 22.5H133.094C133.046 22.5 132.974 22.464 132.974 21.876C132.974 21.276 133.046 21.204 133.094 21.204H135.338C135.842 21.204 136.19 20.928 136.19 20.448V18.516H137.426V20.4C137.426 20.94 137.714 21.204 138.254 21.204H138.674ZM136.166 23.904V25.068H132.902V23.904H136.166ZM140.724 18.516H141.972V20.484C141.972 21.756 141.144 22.5 139.896 22.5H138.672C138.624 22.5 138.552 22.464 138.552 21.876C138.552 21.276 138.624 21.204 138.672 21.204H139.896C140.376 21.204 140.724 20.94 140.724 20.448V18.516ZM141.264 23.904V25.068H138V23.904H141.264ZM139.032 26.82V25.704H140.232V26.82H139.032ZM149.76 25.404C147.696 25.404 146.568 24.156 146.568 22.044V19.716H147.804V22.02C147.804 23.388 148.428 24.108 149.772 24.108H150.264C151.536 24.108 152.328 23.364 152.328 22.128V14.748H153.576V22.02C153.576 24.18 152.208 25.404 150.264 25.404H149.76ZM157.922 21.204C157.982 21.204 158.042 21.264 158.042 21.876C158.042 22.452 157.982 22.5 157.922 22.5H157.562C156.266 22.5 155.618 21.696 155.618 20.34V14.748H156.854V20.256C156.854 20.904 157.094 21.204 157.634 21.204H157.922ZM158.874 21.204C159.534 21.204 159.87 20.88 159.87 20.352V18.516H161.118V20.352C161.118 20.88 161.406 21.204 162.09 21.204C162.75 21.204 163.086 20.88 163.086 20.352V18.516H164.334V20.352C164.334 20.88 164.622 21.204 165.246 21.204C165.882 21.204 166.182 20.88 166.182 20.352V18.516H167.418V20.34C167.418 21.708 166.602 22.5 165.246 22.5C164.382 22.5 163.89 22.248 163.662 21.804C163.362 22.248 162.858 22.5 162.09 22.5C161.166 22.5 160.674 22.248 160.446 21.804C160.146 22.248 159.642 22.5 158.874 22.5H157.926C157.878 22.5 157.806 22.464 157.806 21.876C157.806 21.276 157.878 21.204 157.926 21.204H158.874ZM171.122 22.116C171.122 24.12 169.85 25.404 167.918 25.404H167.018L166.91 24.108H167.906C169.142 24.108 169.874 23.376 169.874 22.116V18.516H171.122V22.116ZM173.032 22.5V14.748H174.268V22.5H173.032Z" fill="white"/>
</svg>
