<svg width="65" height="36" viewBox="0 0 65 36" fill="none" xmlns="http://www.w3.org/2000/svg">
<rect width="65" height="36" rx="8" fill="#2C7EF8"/>
<path d="M20.9156 25.528C20.0942 25.528 19.3942 25.3367 18.8156 24.954C18.2369 24.5807 17.7982 24.0767 17.4996 23.442C17.2009 22.8167 17.0516 22.126 17.0516 21.37C17.0516 20.922 17.1216 20.432 17.2616 19.9C17.4016 19.368 17.5742 18.8733 17.7796 18.416L19.1376 19.004C18.9696 19.3773 18.8296 19.774 18.7176 20.194C18.6149 20.614 18.5636 21.0013 18.5636 21.356C18.5636 22.1307 18.7456 22.7233 19.1096 23.134C19.4829 23.554 20.0849 23.764 20.9156 23.764H21.6016C22.2082 23.764 22.6702 23.7033 22.9876 23.582C23.3049 23.47 23.5242 23.274 23.6456 22.994C23.7762 22.7233 23.8416 22.336 23.8416 21.832L23.8276 12.578H25.3816V21.832C25.3816 22.98 25.0782 23.8807 24.4716 24.534C23.8649 25.1967 22.9082 25.528 21.6016 25.528H20.9156ZM29.8519 22C28.0413 22 27.1359 20.9733 27.1359 18.92L27.1219 12.746H28.6619L28.6759 18.92C28.6759 19.3213 28.6993 19.6107 28.7459 19.788C28.8019 19.956 28.9093 20.0727 29.0679 20.138C29.2266 20.2033 29.4879 20.236 29.8519 20.236H30.2579L30.3279 21.146L30.2579 22H29.8519ZM30.1175 20.236H31.0835C31.4475 20.236 31.7088 20.1613 31.8675 20.012C32.0262 19.8533 32.1055 19.6013 32.1055 19.256V17.436H33.6595V19.34C33.6595 19.9187 33.9768 20.2173 34.6115 20.236C35.3022 20.2173 35.6475 19.886 35.6475 19.242L35.6335 17.436H37.1875V19.34C37.1875 19.648 37.2622 19.872 37.4115 20.012C37.5702 20.152 37.8035 20.2267 38.1115 20.236C38.4382 20.2267 38.6902 20.1427 38.8675 19.984C39.0448 19.816 39.1195 19.592 39.0915 19.312C39.0635 19.0133 39.0028 18.626 38.9095 18.15C38.8255 17.674 38.7695 17.3613 38.7415 17.212C38.7228 17.156 38.7042 17.0627 38.6855 16.932L40.1555 16.554C40.2675 16.9927 40.3702 17.5107 40.4635 18.108C40.5662 18.696 40.6175 19.158 40.6175 19.494C40.6175 19.9233 40.5242 20.3293 40.3375 20.712C40.1602 21.0947 39.8802 21.4073 39.4975 21.65C39.1242 21.8833 38.6622 22 38.1115 22C37.7755 22 37.4535 21.93 37.1455 21.79C36.8468 21.6407 36.5902 21.4307 36.3755 21.16C36.1608 21.4213 35.8995 21.6267 35.5915 21.776C35.2928 21.9253 34.9568 22 34.5835 22C34.2662 22 33.9395 21.9207 33.6035 21.762C33.2675 21.594 33.0108 21.3933 32.8335 21.16C32.6468 21.4213 32.3948 21.6267 32.0775 21.776C31.7695 21.9253 31.4195 22 31.0275 22H30.1175V20.236ZM44.8059 17.436V21.384C44.8059 22.7 44.4699 23.7173 43.7979 24.436C43.1259 25.164 42.1552 25.528 40.8859 25.528H40.0039V23.764H40.8859C41.4832 23.764 41.9499 23.6893 42.2859 23.54C42.6312 23.3907 42.8786 23.1433 43.0279 22.798C43.1866 22.462 43.2659 21.9907 43.2659 21.384V17.436H44.8059ZM46.525 12.746H48.065L48.079 22H46.539L46.525 12.746Z" fill="white"/>
</svg>
