<svg width="471" height="56" viewBox="0 0 471 56" fill="none" xmlns="http://www.w3.org/2000/svg">
<rect width="471" height="56" rx="6" fill="#2C7EF8"/>
<path d="M199.756 29.468C199.756 28.946 199.864 28.496 200.08 28.19H199.486C198.496 28.19 197.992 28.73 197.992 29.684V37.784H195.706V29.684C195.706 27.362 197.2 25.886 199.576 25.886H203.464C205.804 25.886 206.884 27.074 206.884 29.162V30.152C206.884 32.312 205.606 33.5 203.266 33.5C200.944 33.5 199.756 32.33 199.756 30.368V29.468ZM203.356 31.124C204.112 31.124 204.616 30.872 204.616 30.044V29.342C204.616 28.604 204.202 28.172 203.446 28.172H203.122C202.366 28.172 202.024 28.676 202.024 29.342V29.954C202.024 30.872 202.438 31.124 203.356 31.124ZM213.182 31.106C213.272 31.106 213.362 31.196 213.362 32.348C213.362 33.428 213.272 33.5 213.182 33.5H212.534C210.482 33.5 209.456 32.258 209.456 30.134V21.908H211.76V29.972C211.76 30.746 212.048 31.106 212.696 31.106H213.182ZM221.448 31.106C221.52 31.106 221.628 31.196 221.628 32.312C221.628 33.428 221.52 33.5 221.448 33.5H220.674C219.702 33.5 218.982 33.248 218.622 32.636C218.172 33.248 217.47 33.5 216.48 33.5H213.186C213.114 33.5 213.006 33.446 213.006 32.348C213.006 31.196 213.114 31.106 213.186 31.106H216.48C217.074 31.106 217.47 30.764 217.47 30.188V27.308H219.774V30.116C219.774 30.764 220.098 31.106 220.782 31.106H221.448ZM217.884 35.372V37.424H212.808V35.372H217.884ZM224.219 27.308H226.505V30.296C226.505 32.294 225.227 33.5 223.211 33.5H221.447C221.375 33.5 221.267 33.446 221.267 32.348C221.267 31.196 221.375 31.106 221.447 31.106H223.211C223.805 31.106 224.219 30.764 224.219 30.188V27.308ZM225.425 35.372V37.424H220.349V35.372H225.425ZM221.861 40.268V38.288H223.913V40.268H221.861ZM237.762 37.802C234.612 37.802 232.884 35.894 232.884 32.708V29.108H235.17V32.654C235.17 34.454 235.962 35.408 237.762 35.408H238.482C240.21 35.408 241.254 34.454 241.254 32.834V21.908H243.54V32.654C243.54 35.948 241.488 37.802 238.482 37.802H237.762ZM250.026 31.106C250.116 31.106 250.206 31.196 250.206 32.348C250.206 33.428 250.116 33.5 250.026 33.5H249.378C247.326 33.5 246.3 32.258 246.3 30.134V21.908H248.604V29.972C248.604 30.746 248.892 31.106 249.54 31.106H250.026ZM251.415 31.106C252.243 31.106 252.657 30.692 252.657 30.026V27.308H254.943V30.026C254.943 30.692 255.285 31.106 256.185 31.106C257.013 31.106 257.427 30.692 257.427 30.026V27.308H259.713V30.026C259.713 30.692 260.037 31.106 260.865 31.106C261.675 31.106 262.017 30.692 262.017 30.026V27.308H264.303V30.044C264.303 32.222 263.025 33.5 260.865 33.5C259.569 33.5 258.849 33.158 258.471 32.546C258.021 33.158 257.337 33.5 256.185 33.5C254.817 33.5 254.097 33.158 253.719 32.546C253.269 33.158 252.567 33.5 251.415 33.5H250.029C249.957 33.5 249.849 33.446 249.849 32.348C249.849 31.196 249.957 31.106 250.029 31.106H251.415ZM269.827 32.834C269.827 35.804 267.937 37.802 264.967 37.802H263.455L263.257 35.408H264.931C266.587 35.408 267.541 34.472 267.541 32.834V27.308H269.827V32.834ZM272.403 33.5V21.908H274.707V33.5H272.403Z" fill="white"/>
</svg>
